<svg width="16" height="16" viewBox="0 0 16 16" fill="none" xmlns="http://www.w3.org/2000/svg">
<path d="M8 0C3.58 0 0 3.58 0 8C0 11.54 2.29 14.53 5.47 15.59C5.87 15.66 6.02 15.38 6.02 15.14C6.02 14.92 6.01 14.39 6.01 13.72C4 14.09 3.48 13.23 3.32 12.78C3.23 12.55 2.84 11.84 2.5 11.62C2.22 11.45 1.82 11.08 2.49 11.07C3.12 11.06 3.57 11.69 3.72 11.97C4.44 13.15 5.59 12.81 6.05 12.56C6.12 12.06 6.33 11.7 6.56 11.48C4.78 11.26 2.92 10.56 2.92 7.53C2.92 6.78 3.23 6.17 3.74 5.68C3.66 5.46 3.38 4.77 3.82 3.82C3.82 3.82 4.49 3.58 6.02 4.63C6.66 4.44 7.34 4.34 8.02 4.34C8.7 4.34 9.38 4.44 10.02 4.63C11.55 3.58 12.22 3.82 12.22 3.82C12.66 4.77 12.38 5.46 12.3 5.68C12.81 6.17 13.12 6.78 13.12 7.53C13.12 10.57 11.25 11.26 9.47 11.48C9.76 11.74 10.01 12.23 10.01 13.02C10.01 14.13 10 14.99 10 15.14C10 15.38 10.15 15.67 10.55 15.59C13.71 14.53 16 11.53 16 8C16 3.58 12.42 0 8 0Z" fill="white"/>
</svg>
